<?xml version="1.0" standalone="no"?>
<!DOCTYPE svg PUBLIC "-//W3C//DTD SVG 20010904//EN"
 "http://www.w3.org/TR/2001/REC-SVG-20010904/DTD/svg10.dtd">
<svg version="1.0" xmlns="http://www.w3.org/2000/svg"
 width="855.000000pt" height="351.000000pt" viewBox="0 0 855.000000 351.000000"
 preserveAspectRatio="xMidYMid meet">
<metadata>
Created by potrace 1.16, written by Peter Selinger 2001-2019
</metadata>
<g transform="translate(0.000000,351.000000) scale(0.100000,-0.100000)"
fill="#000000" stroke="none">
<path d="M1370 3479 c-395 -25 -720 -115 -944 -264 -167 -109 -297 -267 -348
-422 -32 -95 -31 -264 1 -378 62 -224 223 -454 464 -662 244 -212 470 -368
808 -558 188 -107 537 -279 679 -336 124 -49 301 -111 306 -106 2 2 -65 37
-149 79 -179 90 -412 228 -660 392 -538 356 -885 685 -1035 983 -69 135 -92
311 -56 417 31 91 172 217 319 285 126 59 321 109 520 133 146 17 714 17 895
0 477 -47 936 -149 1365 -304 174 -63 266 -103 473 -207 l162 -81 221 0 c172
0 220 3 217 13 -8 22 -194 160 -340 252 -699 436 -1603 717 -2468 765 -194 11
-248 11 -430 -1z"/>
<path d="M7780 2235 c-220 -42 -329 -138 -377 -332 -25 -102 -22 -352 6 -456
50 -188 154 -286 351 -328 83 -17 304 -17 390 0 87 18 196 71 243 118 96 95
131 210 131 433 1 170 -10 240 -53 335 -51 111 -156 189 -299 221 -96 22 -300
26 -392 9z m373 -224 c48 -15 100 -61 123 -109 16 -32 19 -62 19 -217 0 -244
-16 -284 -130 -337 -46 -21 -64 -23 -210 -23 -141 1 -165 3 -205 22 -59 27
-88 56 -114 112 -18 41 -21 65 -21 216 0 141 3 178 18 217 22 56 72 103 124
117 21 5 47 12 58 15 36 9 299 -1 338 -13z"/>
<path d="M1250 2226 c0 -4 181 -384 348 -728 l100 -207 122 -81 c67 -44 125
-80 129 -80 9 0 531 1075 531 1094 0 4 -54 5 -121 4 l-121 -3 -181 -393 -182
-393 -75 153 c-42 84 -128 262 -193 396 l-117 242 -120 0 c-66 0 -120 -2 -120
-4z"/>
<path d="M2620 1670 l0 -560 115 0 115 0 0 560 0 560 -115 0 -115 0 0 -560z"/>
<path d="M3070 1670 l0 -560 110 0 110 0 0 204 0 204 198 4 c174 4 204 7 252
26 137 54 199 143 207 299 10 165 -33 268 -135 329 -77 46 -143 54 -460 54
l-282 0 0 -560z m589 329 c41 -14 61 -54 61 -123 0 -124 -22 -136 -255 -136
l-175 0 0 135 0 135 169 0 c97 0 181 -5 200 -11z"/>
<path d="M4120 1670 l0 -561 113 3 112 3 3 448 2 447 178 0 c244 0 276 -18
269 -148 -3 -55 -7 -67 -35 -95 l-32 -32 -161 -3 c-138 -3 -160 -6 -155 -18 8
-21 382 -569 402 -588 13 -13 47 -16 210 -16 l195 0 44 95 44 95 251 0 251 0
44 -95 44 -95 114 0 c63 0 116 3 119 6 6 5 -169 393 -389 864 l-110 235 -102
3 -101 3 16 -34 17 -35 -86 -183 c-100 -216 -264 -571 -314 -681 -20 -43 -39
-75 -44 -72 -7 4 -198 272 -222 311 -5 8 8 19 37 32 67 29 139 102 170 171 97
216 -21 447 -249 489 -34 6 -182 11 -347 11 l-288 0 0 -560z m1512 37 c37 -84
70 -161 74 -170 6 -16 -7 -17 -146 -17 -88 0 -150 4 -148 9 16 45 144 331 148
331 3 0 35 -69 72 -153z"/>
<path d="M6479 2216 c-163 -36 -263 -138 -305 -312 -24 -95 -24 -362 -1 -457
45 -181 144 -283 312 -322 52 -12 130 -15 402 -13 l338 3 0 320 0 320 -246 3
c-189 2 -249 -1 -257 -10 -5 -7 -24 -53 -41 -101 -22 -64 -27 -89 -18 -92 6
-3 86 -6 177 -7 l165 -3 0 -107 0 -108 -225 0 c-254 0 -278 6 -337 73 -48 55
-58 102 -58 272 0 175 10 220 63 273 58 58 84 62 409 62 228 0 293 3 301 13
10 12 82 189 82 202 0 11 -705 3 -761 -9z"/>
<path d="M2850 674 c-616 -18 -1438 -78 -1925 -140 -235 -29 -280 -36 -289
-44 -8 -8 223 -341 289 -416 l30 -34 145 24 c187 32 460 72 575 86 533 61 760
81 1200 105 1101 58 2226 44 3280 -41 257 -20 541 -52 778 -87 68 -10 87 -10
87 -1 0 7 -18 79 -40 161 -22 81 -45 168 -52 191 -6 24 -16 45 -22 47 -13 5
-360 31 -581 45 -82 5 -217 14 -300 20 -179 12 -454 26 -775 40 -129 6 -392
17 -585 26 -319 14 -1545 26 -1815 18z"/>
</g>
</svg>
