<?xml version="1.0" encoding="UTF-8"?>
<svg version="1.1" xmlns="http://www.w3.org/2000/svg" width="235" height="235">
<path d="M0 0 C77.55 0 155.1 0 235 0 C235 77.55 235 155.1 235 235 C157.45 235 79.9 235 0 235 C0 157.45 0 79.9 0 0 Z " fill="#FEFEFE" transform="translate(0,0)"/>
<path d="M0 0 C3.57857926 2.38158481 7.05333362 5.10666724 9 9 C9.13357453 12.67329964 9.1671568 15.49852959 8 19 C8.61875 19.2475 9.2375 19.495 9.875 19.75 C12.39525827 21.23250486 13.01231659 22.28387064 14 25 C14 25.99 14 26.98 14 28 C11.1875 28.3125 11.1875 28.3125 8 28 C6.125 25.5 6.125 25.5 5 23 C4.01 23.66 3.02 24.32 2 25 C-1.1875 25.125 -1.1875 25.125 -4 25 C-4 27.31 -4 29.62 -4 32 C-0.27714489 33.62874911 3.39935877 35.13969129 7.25 36.4375 C10.59373817 37.70514542 12.44786434 38.6218224 14 42 C15.07150018 46.01601642 15.45170075 48.93018243 13.8125 52.8125 C10.70561878 56.56218423 9.00812141 57.7886197 4.125 58.8125 C-1.22964183 59.27941682 -4.63245491 58.12442596 -8.8125 54.6875 C-11.03653935 51.95510879 -11.70359143 50.45809994 -12 47 C-9.25 46.75 -9.25 46.75 -6 47 C-5.38125 47.66 -4.7625 48.32 -4.125 49 C-1.67119907 51.30945969 -1.05154237 51.29524045 2.1875 51.3125 C5.78410016 51.43155899 5.78410016 51.43155899 7 50 C7.04063832 48.33382885 7.042721 46.66611905 7 45 C3.69262896 43.2636302 0.48709141 41.81905855 -3.0625 40.6875 C-7.50755825 39.06105148 -9.39962617 36.93996035 -12 33 C-12.8125 30.125 -12.8125 30.125 -13 28 C-14.2375 28.103125 -15.475 28.20625 -16.75 28.3125 C-20.14098347 28.30045388 -20.78825125 28.17043192 -23.5625 25.9375 C-25.43625505 22.10852228 -25.12962701 20.06665724 -24 16 C-22.5625 14.0625 -22.5625 14.0625 -21 13 C-20.34 13 -19.68 13 -19 13 C-19.875 16.875 -19.875 16.875 -21 18 C-21.2500773 20.45809998 -21.2500773 20.45809998 -21 23 C-20.34 23.66 -19.68 24.32 -19 25 C-15.40320934 24.67673447 -15.40320934 24.67673447 -12 24 C-12.98963816 23.01036184 -13.99477993 22.03630695 -15 21.0625 C-17.78307678 18.19245207 -17.9706724 17.35193122 -18.3125 13.25 C-18.24019297 8.82320317 -16.96926749 6.35996058 -14 3 C-9.70570307 0.07207027 -5.12373574 -1.37396266 0 0 Z " fill="#D2B344" transform="translate(180,81)"/>
<path d="M0 0 C0.75603516 -0.020625 1.51207031 -0.04125 2.29101562 -0.0625 C7.21660482 -0.09667581 10.53780482 0.54334369 14.8125 3.25 C17.25590191 6.18208229 17.77909534 7.93822321 18.1875 11.75 C17.78341243 15.52148402 17.22178119 17.34224684 14.8125 20.25 C13.16642624 20.96600518 11.50052699 21.63943705 9.8125 22.25 C10.4621875 23.29800781 11.111875 24.34601563 11.78125 25.42578125 C12.62534793 26.80447454 13.46907891 28.18339254 14.3125 29.5625 C14.74175781 30.25279297 15.17101562 30.94308594 15.61328125 31.65429688 C16.01933594 32.32138672 16.42539063 32.98847656 16.84375 33.67578125 C17.22080078 34.28848877 17.59785156 34.90119629 17.98632812 35.5324707 C18.8125 37.25 18.8125 37.25 18.8125 40.25 C16.1484375 40.7109375 16.1484375 40.7109375 12.8125 40.25 C10.55892832 38.08859894 9.04492294 35.53623194 7.4375 32.875 C6.98761719 32.17632812 6.53773437 31.47765625 6.07421875 30.7578125 C2.8125 25.60251235 2.8125 25.60251235 2.8125 23.25 C0.8325 23.25 -1.1475 23.25 -3.1875 23.25 C-3.1875 28.86 -3.1875 34.47 -3.1875 40.25 C-5.1675 40.25 -7.1475 40.25 -9.1875 40.25 C-9.21214775 34.71411467 -9.23033496 29.178261 -9.24243164 23.64233398 C-9.24747244 21.7575627 -9.25430498 19.87279535 -9.26293945 17.98803711 C-9.27501617 15.28498364 -9.28073068 12.58198169 -9.28515625 9.87890625 C-9.29031754 9.03099014 -9.29547882 8.18307404 -9.30079651 7.3094635 C-9.30099195 5.28928932 -9.24956211 3.26922066 -9.1875 1.25 C-7.10837421 -0.82912579 -2.85404059 0.01897949 0 0 Z " fill="#3D6075" transform="translate(99.1875,98.75)"/>
<path d="M0 0 C1.2065625 0.0309375 1.2065625 0.0309375 2.4375 0.0625 C6.39107846 7.51541599 9.52296529 15.14984833 12.4375 23.0625 C12.7048999 22.4012915 12.9722998 21.74008301 13.24780273 21.05883789 C14.4542498 18.07982351 15.66457088 15.10239848 16.875 12.125 C17.29587891 11.08408203 17.71675781 10.04316406 18.15039062 8.97070312 C18.55322266 7.98134766 18.95605469 6.99199219 19.37109375 5.97265625 C19.74290771 5.05621338 20.11472168 4.13977051 20.49780273 3.19555664 C21.4375 1.0625 21.4375 1.0625 22.4375 0.0625 C24.9375 -0.0625 24.9375 -0.0625 27.4375 0.0625 C29.22152396 1.84652396 28.56982529 4.22128397 28.57421875 6.59375 C28.57035156 7.3259375 28.56648438 8.058125 28.5625 8.8125 C28.56830078 9.88757813 28.56830078 9.88757813 28.57421875 10.984375 C28.56888583 13.88548347 28.5231006 16.64909554 27.93359375 19.49609375 C27.17078432 23.44228113 27.33387469 27.36686363 27.375 31.375 C27.37951172 32.21095703 27.38402344 33.04691406 27.38867188 33.90820312 C27.40039452 35.95966649 27.41832797 38.01109273 27.4375 40.0625 C25.4575 40.0625 23.4775 40.0625 21.4375 40.0625 C20.9425 30.6575 20.9425 30.6575 20.4375 21.0625 C19.81875 22.67125 19.2 24.28 18.5625 25.9375 C16.6875 30.8125 16.6875 30.8125 14.4375 33.0625 C11.98828125 33.06640625 11.98828125 33.06640625 9.4375 32.0625 C7.21454432 28.23682073 5.97418268 24.23349584 4.4375 20.0625 C4.1075 26.6625 3.7775 33.2625 3.4375 40.0625 C1.1275 40.0625 -1.1825 40.0625 -3.5625 40.0625 C-3.58714775 34.52661467 -3.60533496 28.990761 -3.61743164 23.45483398 C-3.62247244 21.5700627 -3.62930498 19.68529535 -3.63793945 17.80053711 C-3.65001617 15.09748364 -3.65573068 12.39448169 -3.66015625 9.69140625 C-3.66531754 8.84349014 -3.67047882 7.99557404 -3.67579651 7.1219635 C-3.67599195 5.10178932 -3.62456211 3.08172066 -3.5625 1.0625 C-2.5625 0.0625 -2.5625 0.0625 0 0 Z " fill="#4B6475" transform="translate(125.5625,98.9375)"/>
<path d="M0 0 C1.65 0 3.3 0 5 0 C6 1 6 1 6.09765625 4.59765625 C6.09191272 6.08597255 6.07889891 7.57426296 6.0625 9.0625 C6.041875 11.681875 6.02125 14.30125 6 17 C14.91 17 23.82 17 33 17 C32.96042843 11.77936725 32.96042843 11.77936725 32.90991211 6.55883789 C32.90276055 4.70566241 32.9497148 2.85250692 33 1 C34 0 34 0 36.5 -0.125 C39 0 39 0 40 1 C40.08865208 3.8843382 40.11521296 6.74462158 40.09765625 9.62890625 C40.0962413 10.49313705 40.09482635 11.35736786 40.09336853 12.24778748 C40.08775239 15.01939292 40.07519719 17.7909188 40.0625 20.5625 C40.05748708 22.4368478 40.05292381 24.31119685 40.04882812 26.18554688 C40.03777772 30.79039544 40.0205023 35.39518421 40 40 C37.69 40 35.38 40 33 40 C33 34.39 33 28.78 33 23 C24.09 23 15.18 23 6 23 C6 28.61 6 34.22 6 40 C4.02 40 2.04 40 0 40 C0 26.8 0 13.6 0 0 Z " fill="#3F5F6F" transform="translate(44,99)"/>
<path d="M0 0 C-0.875 3.875 -0.875 3.875 -2 5 C-2.2500773 7.45809998 -2.2500773 7.45809998 -2 10 C-1.34 10.66 -0.68 11.32 0 12 C4.05766511 11.84971611 6.3008948 11.59155055 9.4375 8.9375 C9.953125 8.298125 10.46875 7.65875 11 7 C12.98 7.66 14.96 8.32 17 9 C16.01 10.485 16.01 10.485 15 12 C14.92094936 14.33199388 14.91201231 16.66832622 15 19 C18.72285511 20.62874911 22.39935877 22.13969129 26.25 23.4375 C29.59373817 24.70514542 31.44786434 25.6218224 33 29 C34.07150018 33.01601642 34.45170075 35.93018243 32.8125 39.8125 C29.70561878 43.56218423 28.00812141 44.7886197 23.125 45.8125 C17.77035817 46.27941682 14.36754509 45.12442596 10.1875 41.6875 C7.96346065 38.95510879 7.29640857 37.45809994 7 34 C9.75 33.75 9.75 33.75 13 34 C13.61875 34.66 14.2375 35.32 14.875 36 C17.32880093 38.30945969 17.94845763 38.29524045 21.1875 38.3125 C24.78410016 38.43155899 24.78410016 38.43155899 26 37 C26.04063832 35.33382885 26.042721 33.66611905 26 32 C22.69262896 30.2636302 19.48709141 28.81905855 15.9375 27.6875 C11.49244175 26.06105148 9.60037383 23.93996035 7 20 C6.1875 17.125 6.1875 17.125 6 15 C4.14375 15.1546875 4.14375 15.1546875 2.25 15.3125 C-1.14098347 15.30045388 -1.78825125 15.17043192 -4.5625 12.9375 C-6.43625505 9.10852228 -6.12962701 7.06665724 -5 3 C-2.77419355 0 -2.77419355 0 0 0 Z " fill="#486170" transform="translate(161,94)"/>
<path d="M0 0 C1.2065625 0.0309375 1.2065625 0.0309375 2.4375 0.0625 C7.80879841 10.43607631 7.80879841 10.43607631 9.4375 16.0625 C8.7775 16.7225 8.1175 17.3825 7.4375 18.0625 C6.1175 18.0625 4.7975 18.0625 3.4375 18.0625 C3.4375 25.3225 3.4375 32.5825 3.4375 40.0625 C1.1275 40.0625 -1.1825 40.0625 -3.5625 40.0625 C-3.58714775 34.52661467 -3.60533496 28.990761 -3.61743164 23.45483398 C-3.62247244 21.5700627 -3.62930498 19.68529535 -3.63793945 17.80053711 C-3.65001617 15.09748364 -3.65573068 12.39448169 -3.66015625 9.69140625 C-3.66531754 8.84349014 -3.67047882 7.99557404 -3.67579651 7.1219635 C-3.67599195 5.10178932 -3.62456211 3.08172066 -3.5625 1.0625 C-2.5625 0.0625 -2.5625 0.0625 0 0 Z " fill="#536B7B" transform="translate(125.5625,98.9375)"/>
<path d="M0 0 C2.54532213 1.33964322 4.57078153 2.42770871 6.3125 4.75 C7.62625715 9.04956885 7.56088935 12.67157786 5.8125 16.8125 C3.71350899 19.34576501 2.04402316 19.89897035 -1 21 C-0.3503125 22.04800781 0.299375 23.09601563 0.96875 24.17578125 C1.81284793 25.55447454 2.65657891 26.93339254 3.5 28.3125 C3.92925781 29.00279297 4.35851562 29.69308594 4.80078125 30.40429688 C5.20683594 31.07138672 5.61289063 31.73847656 6.03125 32.42578125 C6.40830078 33.03848877 6.78535156 33.65119629 7.17382812 34.2824707 C8 36 8 36 8 39 C5.3671875 39.5234375 5.3671875 39.5234375 2 39 C-0.43409358 36.50984284 -2.10844841 33.61085622 -3.875 30.625 C-4.37257813 29.8309375 -4.87015625 29.036875 -5.3828125 28.21875 C-9 22.3557263 -9 22.3557263 -9 20 C-10.65 20 -12.3 20 -14 20 C-14 18.68 -14 17.36 -14 16 C-13.24074219 15.95101562 -12.48148437 15.90203125 -11.69921875 15.8515625 C-10.70535156 15.77679688 -9.71148437 15.70203125 -8.6875 15.625 C-7.70136719 15.55539063 -6.71523437 15.48578125 -5.69921875 15.4140625 C-2.78471567 15.16134528 -2.78471567 15.16134528 0 13 C0.37918457 10.1181973 0.27444366 8.50314671 -1.125 5.9375 C-1.41375 5.298125 -1.7025 4.65875 -2 4 C-1.125 1.75 -1.125 1.75 0 0 Z " fill="#45606E" transform="translate(110,100)"/>
<path d="M0 0 C2.5 0.125 2.5 0.125 3.5 1.125 C3.58865208 4.0093382 3.61521296 6.86962158 3.59765625 9.75390625 C3.5962413 10.61813705 3.59482635 11.48236786 3.59336853 12.37278748 C3.58775239 15.14439292 3.57519719 17.9159188 3.5625 20.6875 C3.55748708 22.5618478 3.55292381 24.43619685 3.54882812 26.31054688 C3.53777772 30.91539544 3.5205023 35.52018421 3.5 40.125 C1.19 40.125 -1.12 40.125 -3.5 40.125 C-3.5 34.515 -3.5 28.905 -3.5 23.125 C-12.41 23.125 -21.32 23.125 -30.5 23.125 C-30.5 22.795 -30.5 22.465 -30.5 22.125 C-29.69256348 22.09994385 -28.88512695 22.0748877 -28.05322266 22.04907227 C-24.41031083 21.93334513 -20.76767274 21.81051365 -17.125 21.6875 C-15.85398437 21.64818359 -14.58296875 21.60886719 -13.2734375 21.56835938 C-12.06171875 21.52646484 -10.85 21.48457031 -9.6015625 21.44140625 C-7.92054443 21.38641968 -7.92054443 21.38641968 -6.20556641 21.33032227 C-3.53287229 21.29903987 -3.53287229 21.29903987 -1.5 20.125 C-0.84767859 17.8083206 -0.84767859 17.8083206 -0.4375 15.125 C0.40566038 10.21933962 0.40566038 10.21933962 1.5 9.125 C1.54092937 6.79202567 1.54241723 4.45794775 1.5 2.125 C0.51 2.125 -0.48 2.125 -1.5 2.125 C-1.37431641 3.49785156 -1.37431641 3.49785156 -1.24609375 4.8984375 C-1.14425781 6.08695312 -1.04242188 7.27546875 -0.9375 8.5 C-0.83308594 9.68335937 -0.72867188 10.86671875 -0.62109375 12.0859375 C-0.5 15.125 -0.5 15.125 -1.5 17.125 C-2.16 17.125 -2.82 17.125 -3.5 17.125 C-3.52684679 14.47909986 -3.54676357 11.83346904 -3.5625 9.1875 C-3.57087891 8.43275391 -3.57925781 7.67800781 -3.58789062 6.90039062 C-3.59652441 4.97505687 -3.55224333 3.04964419 -3.5 1.125 C-2.5 0.125 -2.5 0.125 0 0 Z " fill="#456177" transform="translate(80.5,98.875)"/>
<path d="M0 0 C0.33 0 0.66 0 1 0 C1 9.9 1 19.8 1 30 C-0.98 30.99 -0.98 30.99 -3 32 C-4.50537035 29.54481265 -6.00444426 27.0861548 -7.5 24.625 C-7.92925781 23.92632812 -8.35851562 23.22765625 -8.80078125 22.5078125 C-12 17.2265625 -12 17.2265625 -12 15 C-11.030625 14.360625 -10.06125 13.72125 -9.0625 13.0625 C-5.75744775 11.28938993 -5.75744775 11.28938993 -5 8 C-2.9375 7.3125 -2.9375 7.3125 -1 7 C-0.67 4.69 -0.34 2.38 0 0 Z " fill="#F4FAFB" transform="translate(121,106)"/>
<path d="M0 0 C2 2 2 2 2.25 5.3125 C2.00655446 8.9033217 1.65776419 12.34223581 -1 15 C-3.3125 15.375 -3.3125 15.375 -6 15 C-7.32 13.35 -8.64 11.7 -10 10 C-10.33 15.28 -10.66 20.56 -11 26 C-11.33 26 -11.66 26 -12 26 C-12.28509844 22.60616308 -12.52181945 19.21060061 -12.75 15.8125 C-12.83121094 14.85279297 -12.91242188 13.89308594 -12.99609375 12.90429688 C-13.44227935 5.74053917 -13.44227935 5.74053917 -11.140625 1.88671875 C-7.2351151 -1.55554636 -5.03449196 -0.98891806 0 0 Z " fill="#A49A64" transform="translate(165,113)"/>
<path d="M0 0 C2.9375 1.5625 2.9375 1.5625 5 4 C5.3125 7.75 5.3125 7.75 5 11 C0.545 11.495 0.545 11.495 -4 12 C-4 12.66 -4 13.32 -4 14 C-6.5 15.625 -6.5 15.625 -9 17 C-9 16.01 -9 15.02 -9 14 C-8.34 14 -7.68 14 -7 14 C-7.639375 13.0925 -8.27875 12.185 -8.9375 11.25 C-10.61428953 8.60778619 -11.53689998 7.0101501 -12 4 C-8.03386905 0.15405483 -5.50483207 -0.78640458 0 0 Z " fill="#FBF9E9" transform="translate(178,87)"/>
<path d="M0 0 C1.9375 0.5625 1.9375 0.5625 4 2 C4.91214879 5.85909105 5.26132231 8.21603308 4 12 C4.99 12 5.98 12 7 12 C6.67 8.37 6.34 4.74 6 1 C6.66 0.67 7.32 0.34 8 0 C9.49498913 2.98997825 9.11577446 5.70042775 9 9 C8.67 9.99 8.34 10.98 8 12 C8.61875 12.2475 9.2375 12.495 9.875 12.75 C12.39525827 14.23250486 13.01231659 15.28387064 14 18 C14 18.99 14 19.98 14 21 C11.1875 21.3125 11.1875 21.3125 8 21 C6.125 18.5 6.125 18.5 5 16 C4.01 16.66 3.02 17.32 2 18 C-0.6875 18.125 -0.6875 18.125 -3 18 C-3.33 17.01 -3.66 16.02 -4 15 C-4.66 14.67 -5.32 14.34 -6 14 C-6 13.01 -6 12.02 -6 11 C-1.545 10.505 -1.545 10.505 3 10 C2.41825155 4.6913151 2.41825155 4.6913151 0 0 Z " fill="#CFB143" transform="translate(180,88)"/>
<path d="M0 0 C9.04761905 -0.36190476 9.04761905 -0.36190476 13.125 1.1875 C15 3 15 3 15.5625 5.5 C15 8 15 8 13.32421875 9.64453125 C9.13810675 12.08584363 4.73960699 11.16927168 0 11 C0 7.37 0 3.74 0 0 Z " fill="#FCFEFC" transform="translate(96,105)"/>
<path d="M0 0 C-0.875 3.875 -0.875 3.875 -2 5 C-2.2500773 7.45809998 -2.2500773 7.45809998 -2 10 C-1.34 10.66 -0.68 11.32 0 12 C4.05766511 11.84971611 6.3008948 11.59155055 9.4375 8.9375 C9.953125 8.298125 10.46875 7.65875 11 7 C12.98 7.66 14.96 8.32 17 9 C16.01 10.485 16.01 10.485 15 12 C14.31744011 14.32873375 13.64949225 16.66182791 13 19 C12 20 12 20 9.4375 20.0625 C8.633125 20.041875 7.82875 20.02125 7 20 C6.67 18.35 6.34 16.7 6 15 C4.14375 15.1546875 4.14375 15.1546875 2.25 15.3125 C-1.14098347 15.30045388 -1.78825125 15.17043192 -4.5625 12.9375 C-6.43625505 9.10852228 -6.12962701 7.06665724 -5 3 C-2.77419355 0 -2.77419355 0 0 0 Z " fill="#4E6772" transform="translate(161,94)"/>
<path d="M0 0 C4.93158923 -0.81174832 10.69059679 -0.69337701 15 2 C17.41366253 5.25844442 17.6463975 9.03965196 18 13 C17.5625 15.4375 17.5625 15.4375 17 17 C16.01 17 15.02 17 14 17 C14.0825 15.7625 14.165 14.525 14.25 13.25 C14.2735201 9.92190611 14.24064334 9.28576397 12 6.625 C11.34 6.08875 10.68 5.5525 10 5 C10 4.34 10 3.68 10 3 C6.04 3 2.08 3 -2 3 C-1.34 2.01 -0.68 1.02 0 0 Z " fill="#DEAE26" transform="translate(170,83)"/>
<path d="M0 0 C2.5 0.125 2.5 0.125 3.5 1.125 C3.58865208 4.0093382 3.61521296 6.86962158 3.59765625 9.75390625 C3.5962413 10.61813705 3.59482635 11.48236786 3.59336853 12.37278748 C3.58775239 15.14439292 3.57519719 17.9159188 3.5625 20.6875 C3.55748708 22.5618478 3.55292381 24.43619685 3.54882812 26.31054688 C3.53777772 30.91539544 3.5205023 35.52018421 3.5 40.125 C3.17 40.125 2.84 40.125 2.5 40.125 C2.17 27.585 1.84 15.045 1.5 2.125 C0.51 2.125 -0.48 2.125 -1.5 2.125 C-1.41621094 3.04023437 -1.33242187 3.95546875 -1.24609375 4.8984375 C-1.14425781 6.08695312 -1.04242188 7.27546875 -0.9375 8.5 C-0.83308594 9.68335937 -0.72867188 10.86671875 -0.62109375 12.0859375 C-0.5 15.125 -0.5 15.125 -1.5 17.125 C-2.16 17.125 -2.82 17.125 -3.5 17.125 C-3.52684679 14.47909986 -3.54676357 11.83346904 -3.5625 9.1875 C-3.57087891 8.43275391 -3.57925781 7.67800781 -3.58789062 6.90039062 C-3.59652441 4.97505687 -3.55224333 3.04964419 -3.5 1.125 C-2.5 0.125 -2.5 0.125 0 0 Z " fill="#6D828E" transform="translate(80.5,98.875)"/>
<path d="M0 0 C0.33 0.66 0.66 1.32 1 2 C0.67 2.66 0.34 3.32 0 4 C-0.49692649 10.36794949 -0.49692649 10.36794949 2 16 C4.0335948 17.26804566 4.0335948 17.26804566 6 18 C5.67 18.66 5.34 19.32 5 20 C-1.16581818 21.48436364 -1.16581818 21.48436364 -3.9375 19.875 C-5.33812547 17.403308 -5.35877543 15.79844834 -5 13 C-4.34 12.34 -3.68 11.68 -3 11 C-2.75712511 8.55987051 -2.75712511 8.55987051 -2.875 5.875 C-2.89304688 4.96492188 -2.91109375 4.05484375 -2.9296875 3.1171875 C-2.95289063 2.41851562 -2.97609375 1.71984375 -3 1 C-2.01 0.67 -1.02 0.34 0 0 Z " fill="#F9F5D7" transform="translate(163,86)"/>
<path d="M0 0 C8.78760665 -0.46070947 8.78760665 -0.46070947 13.125 1.1875 C15 3 15 3 15.5625 5.5 C15 8 15 8 13.32421875 9.64453125 C10.42554812 11.33501647 8.57985661 11.30642345 5.25 11.1875 C4.26515625 11.16042969 3.2803125 11.13335937 2.265625 11.10546875 C1.51796875 11.07066406 0.7703125 11.03585938 0 11 C0.33 10.01 0.66 9.02 1 8 C4.66666667 8 8.33333333 8 12 8 C12.33 6.35 12.66 4.7 13 3 C8.71 2.67 4.42 2.34 0 2 C0 1.34 0 0.68 0 0 Z " fill="#D3E1E6" transform="translate(96,105)"/>
<path d="M0 0 C0.33 0 0.66 0 1 0 C1.05437607 1.58294782 1.09296271 3.16644256 1.125 4.75 C1.14820313 5.63171875 1.17140625 6.5134375 1.1953125 7.421875 C0.99139502 10.1135858 0.36551721 11.69904974 -1 14 C-1.66 13.67 -2.32 13.34 -3 13 C-3 18.61 -3 24.22 -3 30 C-3.33 30 -3.66 30 -4 30 C-4 24.39 -4 18.78 -4 13 C-12.91 13 -21.82 13 -31 13 C-31 12.67 -31 12.34 -31 12 C-30.19256348 11.97494385 -29.38512695 11.9498877 -28.55322266 11.92407227 C-24.91031083 11.80834513 -21.26767274 11.68551365 -17.625 11.5625 C-15.71847656 11.50352539 -15.71847656 11.50352539 -13.7734375 11.44335938 C-11.95585938 11.38051758 -11.95585938 11.38051758 -10.1015625 11.31640625 C-8.42054443 11.26141968 -8.42054443 11.26141968 -6.70556641 11.20532227 C-4.03287229 11.17403987 -4.03287229 11.17403987 -2 10 C-1.31068656 7.65092125 -1.31068656 7.65092125 -0.875 4.9375 C-0.70742187 4.01839844 -0.53984375 3.09929687 -0.3671875 2.15234375 C-0.24601562 1.44207031 -0.12484375 0.73179688 0 0 Z " fill="#677E91" transform="translate(81,109)"/>
<path d="M0 0 C2.475 0.495 2.475 0.495 5 1 C4.01 2.485 4.01 2.485 3 4 C2.34 4 1.68 4 1 4 C1.11853846 8.05698819 1.24280582 12.11375694 1.37231445 16.17041016 C1.4155455 17.54959378 1.45722866 18.92882685 1.49731445 20.30810547 C1.55530403 22.29406938 1.61937723 24.27985269 1.68359375 26.265625 C1.72025146 27.45961914 1.75690918 28.65361328 1.79467773 29.88378906 C1.96208994 32.42463255 2.26317859 34.5771424 3 37 C3.33 34.36 3.66 31.72 4 29 C4.33 29 4.66 29 5 29 C5 32.3 5 35.6 5 39 C3.35 39 1.7 39 0 39 C0 26.13 0 13.26 0 0 Z " fill="#435D6D" transform="translate(90,100)"/>
<path d="M0 0 C2.625 0.375 2.625 0.375 5 1 C5.625 3.875 5.625 3.875 6 7 C4 9 4 9 1.5 9.25 C-1 9 -1 9 -3 7 C-2.67028521 3.70285207 -2.3773161 2.3773161 0 0 Z " fill="#FCF5D7" transform="translate(159,114)"/>
<path d="M0 0 C1.62077189 5.61036424 2.55579195 9.46245077 0 15 C-0.99 15 -1.98 15 -3 15 C-2.67 14.67 -2.34 14.34 -2 14 C-1.66661404 10.54187831 -1.66661404 10.54187831 -2 7 C-5.6441774 4.5705484 -7.71241272 4.83820425 -12 5 C-11.67 4.34 -11.34 3.68 -11 3 C-9.68 3 -8.36 3 -7 3 C-7 2.34 -7 1.68 -7 1 C-1.125 0 -1.125 0 0 0 Z " fill="#F1F1D9" transform="translate(168,108)"/>
<path d="M0 0 C2.79173055 -0.02690104 5.58320348 -0.04679053 8.375 -0.0625 C9.56609375 -0.07506836 9.56609375 -0.07506836 10.78125 -0.08789062 C16.7734375 -0.11328125 16.7734375 -0.11328125 19 1 C18.34 2.98 17.68 4.96 17 7 C16.34 7 15.68 7 15 7 C15 6.34 15 5.68 15 5 C14.34 4.67 13.68 4.34 13 4 C13.33 3.34 13.66 2.68 14 2 C9.38 2 4.76 2 0 2 C0 1.34 0 0.68 0 0 Z " fill="#5D7481" transform="translate(91,99)"/>
<path d="M0 0 C2.4932534 0.99730136 3.77467439 1.65074531 5.25 3.9375 C6 6 6 6 6 9 C3.125 9.1875 3.125 9.1875 0 9 C-2 6 -2 6 -1.6875 3.9375 C-1 2 -1 2 0 0 Z " fill="#516069" transform="translate(188,100)"/>
<path d="M0 0 C0.99 0.33 1.98 0.66 3 1 C3.0825 2.093125 3.165 3.18625 3.25 4.3125 C3.62010299 8.03443943 3.62010299 8.03443943 6.0625 9.8125 C6.701875 10.204375 7.34125 10.59625 8 11 C8 11.66 8 12.32 8 13 C7.1028125 13.1546875 7.1028125 13.1546875 6.1875 13.3125 C3.59565628 13.94177772 3.59565628 13.94177772 1 17 C0.67 11.39 0.34 5.78 0 0 Z " fill="#EFF9F9" transform="translate(153,98)"/>
<path d="M0 0 C0.33 0 0.66 0 1 0 C1 4.95 1 9.9 1 15 C0.01 15.495 0.01 15.495 -1 16 C-1.66 15.34 -2.32 14.68 -3 14 C-3.66 13.67 -4.32 13.34 -5 13 C-3.35 8.71 -1.7 4.42 0 0 Z " fill="#ECFAFC" transform="translate(146,117)"/>
<path d="M0 0 C2.125 0.9375 2.125 0.9375 4 2 C-0.625 5 -0.625 5 -4 5 C-4 12.26 -4 19.52 -4 27 C-4.33 27 -4.66 27 -5 27 C-5.28509844 23.60616308 -5.52181945 20.21060061 -5.75 16.8125 C-5.83121094 15.85279297 -5.91242188 14.89308594 -5.99609375 13.90429688 C-6.44227935 6.74053917 -6.44227935 6.74053917 -4.140625 2.88671875 C-2 1 -2 1 0 0 Z " fill="#BBB58B" transform="translate(158,112)"/>
<path d="M0 0 C1.5625 1.6875 1.5625 1.6875 3 4 C2.875 6.625 2.875 6.625 2 9 C1.01 9.66 0.02 10.32 -1 11 C-1.99 8.03 -2.98 5.06 -4 2 C-2.68 1.34 -1.36 0.68 0 0 Z " fill="#45616B" transform="translate(134,115)"/>
<path d="M0 0 C-0.875 3.875 -0.875 3.875 -2 5 C-2.29386153 8.72224599 -2.14809171 9.77786243 0 13 C-0.99 13.33 -1.98 13.66 -3 14 C-4.5625 12.4375 -4.5625 12.4375 -6 10 C-5.87456151 6.42500295 -5.72132848 3.97222534 -3.5625 1.0625 C-2 0 -2 0 0 0 Z " fill="#556264" transform="translate(161,94)"/>
<path d="M0 0 C1.66611905 -0.042721 3.33382885 -0.04063832 5 0 C6 1 6 1 6.09765625 3.94140625 C6.08605469 5.13636719 6.07445312 6.33132812 6.0625 7.5625 C6.05347656 8.76003906 6.04445313 9.95757812 6.03515625 11.19140625 C6.02355469 12.11824219 6.01195312 13.04507813 6 14 C3.87000003 10.20960634 3.83297544 7.34263862 4 3 C3.34 3 2.68 3 2 3 C2 3.66 2 4.32 2 5 C1.34 5 0.68 5 0 5 C0 3.35 0 1.7 0 0 Z " fill="#455E67" transform="translate(44,99)"/>
<path d="M0 0 C2.99324263 1.0975223 3.84610901 1.67682892 5.25 4.625 C5.4975 5.40875 5.745 6.1925 6 7 C5.34 7 4.68 7 4 7 C4 7.99 4 8.98 4 10 C1.525 9.01 1.525 9.01 -1 8 C-0.34 7.67 0.32 7.34 1 7 C0.67 4.69 0.34 2.38 0 0 Z " fill="#D6B85A" transform="translate(165,94)"/>
<path d="M0 0 C2.43773135 2.43773135 2.61487376 3.61088906 3 7 C2.5625 10.3125 2.5625 10.3125 2 13 C1.01 13 0.02 13 -1 13 C-1.02696365 11.20841511 -1.04637917 9.41671527 -1.0625 7.625 C-1.07410156 6.62726563 -1.08570313 5.62953125 -1.09765625 4.6015625 C-1 2 -1 2 0 0 Z " fill="#3A5F77" transform="translate(150,125)"/>
<path d="M0 0 C0.66 0.66 1.32 1.32 2 2 C-1.3 2 -4.6 2 -8 2 C-8 4.64 -8 7.28 -8 10 C-9.32 9.01 -10.64 8.02 -12 7 C-11.64393309 4.41851492 -11.16671807 3.17954253 -9.375 1.25 C-6.11092949 -0.46793185 -3.63230308 -0.33632436 0 0 Z " fill="#FBF9CF" transform="translate(178,87)"/>
<path d="M0 0 C-1.32 2.31 -2.64 4.62 -4 7 C-6 6 -6 6 -9 4 C-9 3.01 -9 2.02 -9 1 C-5.8035914 -0.06546953 -3.34252724 -0.07427838 0 0 Z " fill="#D9C66B" transform="translate(183,98)"/>
<path d="M0 0 C2.31 0 4.62 0 7 0 C7 0.66 7 1.32 7 2 C5.35 2 3.7 2 2 2 C2 7.61 2 13.22 2 19 C1.67 19 1.34 19 1 19 C0.67 12.73 0.34 6.46 0 0 Z " fill="#58717C" transform="translate(94,120)"/>
<path d="M0 0 C1.38232443 1.62626404 2.71937515 3.2925002 4 5 C1.00468461 5.99843846 -0.17255732 6.00732761 -3.1875 5.5625 C-4.445625 5.376875 -5.70375 5.19125 -7 5 C-6.01 4.67 -5.02 4.34 -4 4 C-4 3.01 -4 2.02 -4 1 C-2 0 -2 0 0 0 Z " fill="#3D596B" transform="translate(185,117)"/>
<path d="M0 0 C0 0.66 0 1.32 0 2 C-0.66 2 -1.32 2 -2 2 C-2 2.99 -2 3.98 -2 5 C-5.75 6.125 -5.75 6.125 -8 5 C-7.67 3.35 -7.34 1.7 -7 0 C-3.86650268 -1.04449911 -3.01031744 -0.93423645 0 0 Z " fill="#466374" transform="translate(183,116)"/>
<path d="M0 0 C4.875 2.75 4.875 2.75 6 5 C5.01 5 4.02 5 3 5 C3 5.66 3 6.32 3 7 C1.35 6.67 -0.3 6.34 -2 6 C-1.34 4.02 -0.68 2.04 0 0 Z " fill="#4B6775" transform="translate(110,100)"/>
<path d="M0 0 C2 2 2 2 2.25 5.25 C2.00879145 8.8681282 1.31162801 11.63895322 0 15 C-1.32 14.34 -2.64 13.68 -4 13 C-2.68 12.67 -1.36 12.34 0 12 C-0.08378906 11.21753906 -0.16757813 10.43507813 -0.25390625 9.62890625 C-0.35574219 8.61699219 -0.45757812 7.60507813 -0.5625 6.5625 C-0.66691406 5.55316406 -0.77132812 4.54382813 -0.87890625 3.50390625 C-0.91886719 2.67761719 -0.95882812 1.85132812 -1 1 C-0.67 0.67 -0.34 0.34 0 0 Z " fill="#D6B751" transform="translate(187,88)"/>
<path d="M0 0 C4.75 0.75 4.75 0.75 7 3 C7.125 6.625 7.125 6.625 7 10 C6.01 10 5.02 10 4 10 C4 7.69 4 5.38 4 3 C3.34 3 2.68 3 2 3 C2 2.34 2 1.68 2 1 C1.34 0.67 0.68 0.34 0 0 Z " fill="#D0AE53" transform="translate(160,112)"/>
<path d="M0 0 C0 0.66 0 1.32 0 2 C-3.21451269 3.60725635 -6.43612536 3.05748185 -10 3 C-10 2.34 -10 1.68 -10 1 C-3.375 -1.125 -3.375 -1.125 0 0 Z " fill="#5D6F77" transform="translate(169,106)"/>
<path d="M0 0 C0.66 0 1.32 0 2 0 C2.84454356 3.37817425 3.10844919 5.67465243 2 9 C1.01 9 0.02 9 -1 9 C-0.67 6.03 -0.34 3.06 0 0 Z " fill="#E1B11F" transform="translate(185,91)"/>
<path d="M0 0 C1.19882813 0.15275391 1.19882813 0.15275391 2.421875 0.30859375 C3.02515625 0.39238281 3.6284375 0.47617188 4.25 0.5625 C4.25 0.8925 4.25 1.2225 4.25 1.5625 C0.29 2.2225 -3.67 2.8825 -7.75 3.5625 C-8.08 2.5725 -8.41 1.5825 -8.75 0.5625 C-5.62819599 -0.40411363 -3.22916205 -0.42738909 0 0 Z " fill="#FBFAD4" transform="translate(174.75,79.4375)"/>
<path d="M0 0 C1.65 0 3.3 0 5 0 C5.33 1.32 5.66 2.64 6 4 C4.02 4 2.04 4 0 4 C0 2.68 0 1.36 0 0 Z " fill="#435963" transform="translate(112,135)"/>
<path d="M0 0 C1.32 0.99 2.64 1.98 4 3 C3 5 3 5 2 6 C1.63239269 8.32817964 1.29758419 10.6618385 1 13 C0.67 13 0.34 13 0 13 C0 8.71 0 4.42 0 0 Z " fill="#F8F6E6" transform="translate(154,122)"/>
<path d="M0 0 C1.485 0.99 1.485 0.99 3 2 C3.375 4.5 3.375 4.5 3 7 C2.01 7.66 1.02 8.32 0 9 C-1.125 2.25 -1.125 2.25 0 0 Z " fill="#F7F7F4" transform="translate(185,124)"/>
<path d="M0 0 C0.33 0 0.66 0 1 0 C1 1.65 1 3.3 1 5 C1.99 5.33 2.98 5.66 4 6 C0.25 7.125 0.25 7.125 -2 6 C-1.125 1.125 -1.125 1.125 0 0 Z " fill="#F5FBFB" transform="translate(160,97)"/>
<path d="M0 0 C0.99 0.33 1.98 0.66 3 1 C3 2.32 3 3.64 3 5 C1.68 5 0.36 5 -1 5 C-1.33 3.68 -1.66 2.36 -2 1 C-1.34 0.67 -0.68 0.34 0 0 Z " fill="#4E657E" transform="translate(188,103)"/>
<path d="M0 0 C2 3 2 3 2 5 C2.66 5.33 3.32 5.66 4 6 C4 7.32 4 8.64 4 10 C3.01 9.67 2.02 9.34 1 9 C-0.4783226 6.04335481 -0.06032783 3.25770263 0 0 Z " fill="#C8AB3A" transform="translate(162,91)"/>
<path d="M0 0 C0.66 0 1.32 0 2 0 C3.07525194 2.65228812 4.09456151 5.28368454 5 8 C1.125 6.125 1.125 6.125 0 5 C-0.04063832 3.33382885 -0.042721 1.66611905 0 0 Z " fill="#CEAE4A" transform="translate(154,117)"/>
<path d="M0 0 C-0.66 1.65 -1.32 3.3 -2 5 C-3.32 4.34 -4.64 3.68 -6 3 C-6 2.34 -6 1.68 -6 1 C-3 0 -3 0 0 0 Z " fill="#415F71" transform="translate(175,103)"/>
<path d="M0 0 C2.96175123 0.61277612 4.38058783 1.25372522 7 3 C6.01 3.495 6.01 3.495 5 4 C4.01 3.67 3.02 3.34 2 3 C1.67 3.99 1.34 4.98 1 6 C0.67 4.02 0.34 2.04 0 0 Z " fill="#536976" transform="translate(110,132)"/>
<path d="M0 0 C1.32 0 2.64 0 4 0 C4.625 1.8125 4.625 1.8125 5 4 C4.01 5.485 4.01 5.485 3 7 C2.01 4.69 1.02 2.38 0 0 Z " fill="#E4EEF2" transform="translate(135,116)"/>
<path d="M0 0 C2.375 0.25 2.375 0.25 5 1 C6.3125 3.0625 6.3125 3.0625 7 5 C2.25 3.125 2.25 3.125 0 2 C0 1.34 0 0.68 0 0 Z " fill="#ECF7FC" transform="translate(187,116)"/>
<path d="M0 0 C2.64 0.66 5.28 1.32 8 2 C7.67 2.66 7.34 3.32 7 4 C4.625 3.6875 4.625 3.6875 2 3 C1.34 2.01 0.68 1.02 0 0 Z " fill="#D9E5E7" transform="translate(158,103)"/>
<path d="M0 0 C1.65 0 3.3 0 5 0 C4.67 0.99 4.34 1.98 4 3 C3.34 3 2.68 3 2 3 C2 3.66 2 4.32 2 5 C1.34 5 0.68 5 0 5 C0 3.35 0 1.7 0 0 Z " fill="#546875" transform="translate(44,99)"/>
</svg>
